<?xml version="1.0" encoding="UTF-8"?>
<!-- Created with Inkscape (http://www.inkscape.org/) -->
<svg id="svg8" width="154.39mm" height="154.39mm" version="1.1" viewBox="0 0 154.39 154.39" xmlns="http://www.w3.org/2000/svg" xmlns:cc="http://creativecommons.org/ns#" xmlns:dc="http://purl.org/dc/elements/1.1/" xmlns:rdf="http://www.w3.org/1999/02/22-rdf-syntax-ns#">
 <metadata id="metadata5">
  <rdf:RDF>
   <cc:Work rdf:about="">
    <dc:format>image/svg+xml</dc:format>
    <dc:type rdf:resource="http://purl.org/dc/dcmitype/StillImage"/>
    <dc:title/>
   </cc:Work>
  </rdf:RDF>
 </metadata>
 <g id="layer1" transform="translate(-27.807 -71.307)">
  <path id="path3794" transform="matrix(.26458 0 0 .26458 27.807 71.306)" d="m291.75 18.898a272.86 272.86 0 0 0-272.86 272.86 272.86 272.86 0 0 0 272.86 272.86 272.86 272.86 0 0 0 272.86-272.86 272.86 272.86 0 0 0-272.86-272.86zm0 52.527a220.33 220.33 0 0 1 220.33 220.33 220.33 220.33 0 0 1-133.21 202.1c2.9e-4 2e-3 2e-3 0.01 2e-3 0.0117 0.0476 0.34277 0.13326 0.9624 0.19336 1.3984 0.0597 0.43639 0.15229 1.1303 0.20898 1.5664 0.10167 0.78315 0.23251 1.7901 0.38672 2.9648 0.045 0.3411 0.13673 1.1635 0.20703 1.8457 0.0714 0.68263 0.16508 1.261 0.19531 1.2988 0.20448 0.20277 0.40982 6.4226 0.30664 9.2754-0.0438 1.2085-0.3916 4.1797-0.54882 4.6973-0.16706 0.55858-0.25702 1.0394-0.37305 1.6445-0.0164 0.80349-0.17128 1.646-0.6836 3.6934-0.10953 0.43638-0.42444 1.1395-0.69921 1.5606-0.27738 0.42508-0.54771 0.86626-0.60743 0.99023-0.0597 0.12321-0.21449 0.29841-0.34375 0.39063-0.12827 0.0915-0.49445 0.44758-0.80664 0.7832-1.5245 1.6194-3.4294 2.9579-5.1445 4.4356-0.12548 0.13421-0.33231 0.30867-0.46875 0.39257-0.13867 0.0856-0.44347 0.29584-0.70312 0.48633-0.41783 0.3069-1.5711 1.0412-3.3223 2.1152-0.40135 0.24612-0.99363 0.64848-1.3164 0.89453-3.5355 2.6004-7.9865 4.8302-12.844 6.3789-1.0316 0.47672-7.0561 0.86147-9.3496 0.59766-1.188-0.13379-1.4866-0.14988-3.0703-0.42578-0.50997-0.093-0.4964-0.0952-0.95898-0.21875-1.5066-0.59565-3.3154-1.4945-4.5527-2.1816-0.5424-0.36915-1.1036-0.74195-1.2461-0.82813-2.7989-1.742-5.7711-4.1033-8.4766-6.3867-2.5458-1.741-4.6197-4.0525-6.3203-6.0527-0.25267-0.27568-0.56669-0.73941-0.71485-1.0527-0.98506-2.0562-1.2504-4.0488-0.80664-6.5996 0.11414-1.2308 0.25707-3.2458 0.31641-4.4766 0.0447-0.91085 0.12587-1.8319 0.21875-2.7598a220.33 220.33 0 0 1-25.795 1.793 220.33 220.33 0 0 1-29.578-2.248c-1.5886 14.449-6.8018 20.625-14.859 28.604-1.9486 1.1748-2.6424 1.5291-4.0664 2.0723-0.57854 0.22073-1.1096 0.45074-1.1738 0.50781-0.37673 0.34621-3.6688 1.0137-5 1.0137-0.48246 0-1.0004 0.0668-1.1367 0.14843-0.32808 0.19465-8.0464 0.17808-9.2812-0.0215-15.139-5.5725-20.798-23.54-21.686-47.945a220.33 220.33 0 0 1-133.55-202.46 220.33 220.33 0 0 1 220.33-220.33zm0 11.229a209.1 209.1 0 0 0-209.1 209.1 209.1 209.1 0 0 0 122.25 189.97c1.0526-50.288 16.692-120.48 14.314-169.3-0.10965-1.8314-0.38656-4.4296-0.55078-5.1816-0.0426-0.19272-0.13595-0.703-0.21094-1.1523-0.075-0.44909-0.18342-0.85271-0.24023-0.91016-0.0653-0.0565-0.0953-0.47835-0.0723-0.92773 0.0215-0.44905-0.0472-1.0563-0.15234-1.3359-0.1068-0.28279-0.3321-1.2603-0.50195-2.1816-0.17044-0.92138-0.34535-1.7999-0.39649-1.959-0.0477-0.15704-0.13695-0.57447-0.20117-0.91992-0.10056-0.55362-0.37241-1.4396-0.56445-2.4199-0.23191-1.6695-0.8381-3.9042-1.25-6.2012 0-0.42535-0.137-1.2268-0.3086-1.8027-0.16996-0.57214-0.46944-1.6823-0.66601-2.4766-0.48968-1.9654-0.75327-3.6356-2.1133-6.207-1.1922-3.1671-6.6981-5.5641-9.5098-8.2988-0.50939-0.5037-1.5727-1.434-2.3633-2.0684-0.79072-0.63159-1.4375-1.1884-1.4375-1.2266 0-0.0399-0.16988-0.21948-0.375-0.39258-0.20578-0.17321-0.67471-0.65036-1.0332-1.0527-0.36071-0.40509-1.0306-1.1511-1.4902-1.6602-7.2403-8.0389-11.108-16.251-10.193-25.74 9e-3 -7.7183 0.065-10.322 0.25196-11.691 0.0693-0.50638 0.16175-1.5432 0.21289-2.3027 0.0477-0.75958 0.13895-1.5331 0.20312-1.7168 0.0829-0.24454 0.0504-0.30732-0.11718-0.24609-0.17704 0.0669-0.18252 0.0286-0.0234-0.14454 0.11641-0.12525 0.26155-1.0774 0.31836-2.1035 0.0574-1.0235 0.14383-1.9022 0.18359-1.9453 0.042-0.04 0.12679-0.72424 0.1836-1.5078 0.0585-0.78357 0.15608-1.7222 0.21289-2.0684 0.0579-0.34646 0.13422-1.0243 0.17968-1.4961 0.16721-1.9695 0.64098-6.0001 0.77735-6.6211 0.0807-0.36771 0.19783-1.4296 0.40234-3.6524 0.11482-1.2553 0.22977-2.1074 0.26953-2.1074 0.0114 0 0.0543-0.46145 0.10547-1.0371 0.0489-0.57566 0.12679-1.2935 0.18359-1.6133 0.0534-0.31449 0.14828-0.86278 0.20508-1.209 3.335-19.526 6.8763-34.564 11.857-55.055 0.4281-1.8069 0.96721-3.7821 1.1484-4.2031 0.11025-0.25322 0.24593-0.66864 0.30274-0.92187 0.13931-0.61293 0.61275-2.2332 0.93945-3.2246 0.0625-0.1892 0.24383-0.83987 0.40234-1.4394 0.15863-0.5997 0.42563-1.4606 0.58985-1.9004 0.16701-0.45045 0.33122-0.98524 0.36523-1.209 0.0369-0.22125 0.33267-1.1308 0.6582-2.0156 1.3968-3.8138 2.7388-6.607 3.3262-6.9219 0.26202-0.14098 0.70365-0.1931 1.5527-0.18555 0.65609 8e-3 1.2491 0.0529 1.3281 0.10352 0.19314 0.12525-0.10349 5.8401-0.46485 8.9609-0.16136 1.3938-0.34358 3.3129-0.40039 4.2617-0.0591 0.95678-0.18735 2.4223-0.28906 3.2832-0.10167 0.85822-0.23758 2.5102-0.3086 3.6856-0.0699 1.1754-0.15934 2.2071-0.19335 2.3027-0.037 0.096-0.11938 0.98084-0.1836 1.959-0.10527 1.6257-0.3352 4.5486-0.58008 7.3711-0.0517 0.6023-0.22266 2.7751-0.3789 4.8379-0.2675 3.534-0.35446 4.5448-0.58399 6.7383-0.36951 3.5366-0.70183 6.881-0.86718 8.752-0.21734 2.46-0.29945 3.3623-0.58008 6.334-0.31736 3.3608-0.7508 9.019-1.0508 13.707-0.15343 2.4065-0.32992 4.7898-0.38672 5.2988-0.0579 0.50373-0.15413 1.9348-0.21094 3.166-0.21027 4.4908-0.57975 9.0875-0.97461 12.094-0.16989 1.29-0.27379 2.6872-0.22266 3.0977 0.0982 0.84219 0.66127 1.6895 1.418 2.1426 0.62181 0.37043 1.8908 0.58188 2.8555 0.47265 0.84867-0.096 2.4642-0.92595 2.7812-1.4297 0.29634-0.46904 0.78583-2.2572 0.91992-3.3633 0.0653-0.54101 0.15153-1.007 0.18555-1.041 0.0381-0.0346 0.11938-0.4721 0.18359-0.97852 0.0642-0.50634 0.24056-1.6665 0.39454-2.5859 0.4227-2.5239 0.46211-2.7602 0.56836-3.5117 0.0539-0.38113 0.13245-0.8746 0.18359-1.0957 0.0477-0.21857 0.14187-0.81876 0.21289-1.3144 0.0693-0.49308 0.15525-0.99013 0.18359-1.0918 0.0318-0.10125 0.11947-0.67959 0.19336-1.2793 0.0738-0.59698 0.16502-1.1759 0.19336-1.2715 0.0318-0.0986 0.15914-0.87758 0.28125-1.7305 0.12159-0.85012 0.25141-1.7166 0.29688-1.9219 0.0426-0.20787 0.17421-1.0304 0.29297-1.8379 0.28351-1.9349 0.34272-2.3019 0.46484-2.8535 0.14789-0.66897 0.48663-2.8573 0.5957-3.8594 0.0517-0.47169 0.14437-1.125 0.20117-1.4394 0.19144-1.0367 0.24107-1.3706 0.36719-2.4766 0.0688-0.59966 0.20475-1.3294 0.30078-1.6113 0.16022-0.47433 0.23984-0.95726 0.4961-2.9961 0.1477-1.1754 0.25886-1.875 0.35547-2.248 0.12556-0.48234 0.28686-1.4482 0.41015-2.4609 0.0574-0.47441 0.13786-0.89372 0.17188-0.92774 0.0375-0.0373 0.12234-0.5259 0.19336-1.1016 0.0694-0.57566 0.15739-1.1647 0.1914-1.3242 0.10567-0.45573 0.27572-1.4844 0.39844-2.4199 0.0633-0.47441 0.32824-2.2104 0.58789-3.8574 0.25964-1.6471 0.50746-3.263 0.55859-3.5938 0.0471-0.32784 0.17797-1.1049 0.29102-1.7285 0.25668-1.4179 0.71984-4.2811 0.97266-6.0215 0.1062-0.72495 0.23402-1.5859 0.28515-1.9004 0.15755-0.97811 0.47154-3.0658 0.59766-3.9746 0.0654-0.47173 0.15348-0.99317 0.1875-1.1504 0.037-0.15984 0.12234-0.82911 0.19336-1.498 0.0699-0.66894 0.15934-1.3548 0.19336-1.5332 0.037-0.17322 0.11292-0.51637 0.16406-0.74805 0.0534-0.23448 0.14868-0.83932 0.21289-1.3457 0.0637-0.50642 0.15004-1.181 0.20117-1.498 0.91732-5.9999 2.4848-13.933 3.5176-20.387 0.13658-0.45037 0.15723-0.46145 1.0059-0.5 0.4723-0.0227 1.4187-6e-3 2.0742 0.0371 1.5035 0.0997 1.0792 0.1252 1.207 0.85352 0 0.79419-0.34862 3.7662-0.85937 7.3242-0.16362 1.1407-0.38185 2.9792-0.48243 4.0879-0.10106 1.106-0.22816 2.2766-0.27929 2.5937-0.0534 0.31718-0.14828 1.2194-0.20508 2.0137-0.17327 2.292-0.28042 3.554-0.39063 4.6094-0.0897 0.85814-0.33835 3.7301-0.57812 6.6777-0.0443 0.53835-0.13362 1.9147-0.19727 3.0527-0.0631 1.1407-0.19573 2.8786-0.29687 3.8594-0.10167 0.98347-0.23012 2.8459-0.28125 4.1465-0.0528 1.3006-0.18144 3.1877-0.28711 4.2031-0.27084 2.5932-0.37333 3.9284-0.57617 7.4863-0.0983 1.7164-0.2264 3.7273-0.28321 4.4922-0.10398 1.3566-0.21919 3.1092-0.41406 6.334-0.0534 0.88759-0.22052 3.2486-0.37109 5.2422-0.62757 8.2806-0.97095 16.496-1.0352 24.67-0.0392 5.1251-0.0225 5.4101 0.34961 6.0684 0.87278 1.5432 1.6559 1.9707 3.6211 1.9707 2.103 0 3.0057-0.44234 3.4238-1.6816 0.74351-2.1987 0.85388-2.5865 0.95899-3.3301 0.063-0.44772 0.16194-1.1099 0.21875-1.4961 0.059-0.3784 0.14222-0.97694 0.19336-1.3262 0.17723-1.2766 0.49167-3.4077 0.56835-3.8555 0.0443-0.25579 0.13211-0.92235 0.20313-1.498 0.0693-0.57566 0.15934-1.1644 0.19336-1.3242 0.0364-0.15988 0.11995-0.7486 0.18359-1.3242 1.7805-15.472 4.6785-33.555 7.3398-50.678 0.0262-0.18924 0.0934-0.55145 0.14453-0.80468 0.0534-0.25588 0.19624-1.1074 0.31836-1.9043 0.12274-0.79415 0.30999-1.8257 0.41797-2.3027 0.30578-1.3566 0.34391-1.5529 0.66211-3.4531 0.16414-0.98075 0.33317-1.917 0.36718-2.0742 0.037-0.15991 0.12619-0.74852 0.20118-1.3242 0.0756-0.57566 0.15934-1.0655 0.19335-1.0957 0.0324-0.032 0.11947-0.4872 0.19336-1.0176 0.0745-0.53034 0.15935-1.0994 0.19336-1.2695 0.0324-0.16789 0.11258-0.63683 0.1836-1.0527 0.0704-0.41579 0.15934-0.90282 0.19336-1.0918 0.0386-0.19453 0.12234-0.70389 0.19336-1.1543 0.0705-0.44776 0.16336-0.98328 0.20312-1.207 0.0426-0.22121 0.21217-1.2106 0.37695-2.1914 0.4138-2.4626 0.50922-2.9973 0.60352-3.3945 0.0455-0.19188 0.16909-0.91233 0.2793-1.6133 0.24881-1.5911 0.31917-2.0285 0.55664-3.457 0.10567-0.63435 0.20936-1.4359 0.23242-1.7852 0.0497-0.7942 0.12287-0.91384 0.63476-1.0469l2e-3 6e-3c0.22095-0.0541 0.88803-0.081 1.4668-0.0508 0.57859 0.0306 1.298 0.0547 1.582 0.0547 0.89736 8e-3 1.215 0.44732 1.1582 1.6094-0.0575 1.2153-0.56413 6.0921-0.80274 7.7285-0.69665 4.7759-0.86078 6.2872-1.2676 11.748-0.0403 0.53568-0.12093 1.5778-0.17774 2.3027-0.0591 0.73292-0.15608 1.9934-0.21289 2.8223-0.0591 0.82885-0.14383 1.7545-0.18359 2.0742-0.0426 0.31714-0.16987 1.9213-0.28125 3.5684-0.11078 1.6471-0.24379 3.2038-0.29492 3.457-0.10676 0.52763-0.79716 8.8457-0.96875 11.689-0.0631 1.0421-0.19523 2.8119-0.29297 3.918-0.24405 2.7691-0.35588 4.5941-0.56836 9.2129-0.19545 4.2376-0.33472 6.8389-0.48242 8.9844-0.10169 1.4764-0.27187 4.8128-0.47071 9.2129-0.0727 1.6151-0.15134 6.46-0.17968 10.77-0.0513 8.7284-0.0847 8.486 1.293 9.4668 0.5335 0.37867 0.83692 0.48747 1.5508 0.55664 0.48207 0.0461 1.1526 0.0776 1.4668 0.0625 1.2692-0.056 2.9233-1.056 3.3477-2.0234 0.11251-0.25587 0.25471-1.0029 0.31836-1.6719 0.0647-0.6689 0.14958-1.3382 0.18359-1.498 0.037-0.15723 0.12385-0.93237 0.1875-1.7266 0.19249-2.2814 0.47128-4.5479 0.5957-4.8359 0.0397-0.096 0.12776-0.6706 0.19141-1.2676 0.0636-0.59966 0.14958-1.275 0.18359-1.4961 0.0806-0.47448 0.25282-1.88 0.39258-3.1699 0.0534-0.50635 0.14437-1.2576 0.20117-1.668 2.1796-15.364 3.1942-31.599 5.5996-47.572 0.27169-2.2236 0.72093-4.8663 0.94532-7.3086 0.0437-0.25569 0.0961-0.54141 0.10742-0.63477 0.058-0.47168 0.40164-2.6393 0.47265-2.9961 0.0443-0.22122 0.13992-1.023 0.21094-1.7852 0.0665-0.75961 0.16585-1.422 0.22266-1.4726 0.0488-0.0507 0.1243-0.4149 0.16406-0.80664 0.0804-0.85285 0.42963-3.0534 0.58984-3.709 0.0631-0.25852 0.14384-0.71471 0.1836-1.0371 0.12042-0.97016 0.22854-1.6805 0.44726-2.957 0.12045-0.67967 0.30345-1.8075 0.40625-2.4844 0.10738-0.67964 0.23012-1.4188 0.28125-1.6426 0.0489-0.22126 0.14143-0.81592 0.20508-1.3223 0.35708-2.7531 0.55273-3.3066 1.2715-3.5625 0.45093-0.16138 0.83095-0.18932 1.7148-0.13867 1.2768 0.072 1.8027 0.22973 2.1152 0.62695 0.20976 0.27187 0.86259 4.0629 1.0586 6.1816 0.0574 0.63432 0.14605 1.5405 0.1914 2.0176 0.0494 0.47437 0.14027 2.0266 0.19727 3.4551 0.0586 1.4285 0.14418 3.3422 0.20117 4.2617 0.0533 0.91948 0.13434 3.041 0.19141 4.7227 0.0533 1.6817 0.15487 4.3439 0.21875 5.9297 0.26842 6.3937 0.10736 34.619-0.20899 36.914-0.0438 0.34903-0.13433 1.8767-0.1914 3.3984-0.0586 1.5192-0.14418 3.3337-0.20117 4.0293-0.053 0.70091-0.14042 2.2258-0.19141 3.3984-0.054 1.17-0.18484 3.5612-0.28711 5.2988-0.27269 4.5787-0.36597 7.5546-0.51367 15.779-0.0716 4.019-0.14687 7.6767-0.16992 8.1191-0.0489 0.88211-0.24488 6.2435-0.39258 10.596-0.24475 6.83-1.3043 17.545-7.7148 26.09-4.6726 8.8793-17.498 12.996-17.555 24.82-0.0489 0.25319-0.13441 0.61571-0.18555 0.80469-0.0534 0.18917-0.14226 0.7601-0.19336 1.2676-0.0534 0.50668-0.13832 1.0771-0.18945 1.2676-0.1514 0.56689-0.47606 3.753-0.62891 6.1602-0.28122 4.4518-0.15074 19.178 0.23047 26.031 0.0273 0.4749 0.10917 2.1065 0.18359 3.627 0.075 1.5202 0.17313 3.5938 0.21289 4.6074 0.0426 1.0114 0.12776 3.063 0.19141 4.5488 0.0631 1.4858 0.1536 3.4081 0.19336 4.2617 0.0426 0.85338 0.12971 2.6723 0.19336 4.0312 0.0642 1.3592 0.1536 3.3088 0.19336 4.3203 0.042 1.0117 0.1311 3.0629 0.19531 4.5488 0.27412 6.3 0.46346 10.013 0.66797 13.072 0.0972 1.4626 0.22835 3.5511 0.28516 4.6641 0.0579 1.1058 0.14417 2.4572 0.19531 2.9941 0.13406 1.4512 0.2846 3.0367 0.39258 4.1465 0.0534 0.54206 0.14632 1.6471 0.20312 2.4766 0.0585 0.82862 0.18736 2.2686 0.28906 3.2246 0.10167 0.95603 0.22249 2.2436 0.2793 2.8809 0.0528 0.63352 0.13636 1.462 0.1875 1.8418 0.10351 0.78996 0.43751 4.2281 0.59375 6.1055 0.0585 0.70251 0.14222 1.5489 0.19336 1.9004 0.0472 0.34699 0.13246 1.2313 0.18359 1.957 0.0534 0.72574 0.14223 1.637 0.19336 2.0156 0.0529 0.37845 0.14046 1.2902 0.19727 2.0156 0.12843 1.6585 0.24743 2.9255 0.37695 4.0312 0.0568 0.47973 0.15023 1.3247 0.20703 1.9004 0.0591 0.57592 0.14223 1.2157 0.19336 1.4394 0.0477 0.22038 0.1325 0.79533 0.1836 1.2676 0.0534 0.47709 0.17759 1.4042 0.27929 2.0723 0.10054 0.66788 0.23323 1.5703 0.29688 2.0156 0.12272 0.87417 0.2358 1.6465 0.375 2.5449 0.0489 0.3134 0.14086 1.0209 0.20508 1.5508 0.0631 0.52974 0.1536 1.1362 0.19336 1.3301 0.0421 0.19563 0.1321 0.8983 0.20312 1.5547 0.0694 0.65643 0.15525 1.2256 0.1836 1.2559 0.0318 0.0314 0.11946 0.65507 0.19335 1.3809 0.0745 0.72544 0.16502 1.3526 0.19336 1.3828 0.0324 0.032 0.11894 0.59774 0.19336 1.2656 0.0745 0.66815 0.15935 1.2336 0.19336 1.2676 0.0318 0.0317 0.11699 0.70337 0.19141 1.498 0.075 0.7948 0.17106 1.4679 0.20508 1.502 0.0375 0.0347 0.11994 0.61108 0.18359 1.2676 0.0631 0.65639 0.15004 1.335 0.20117 1.4922 0.0483 0.15991 0.12679 0.74856 0.1836 1.3242 0.0534 0.57592 0.13655 1.1889 0.19336 1.3809 0.0528 0.18841 0.13245 0.63502 0.18359 0.98047 0.0477 0.34854 0.15233 1.0478 0.23242 1.5547 0.0795 0.50665 0.15273 1.0238 0.16406 1.1504 0.0682 0.77182 0.34204 2.803 0.40625 2.9961 0.042 0.12688 0.11898 0.54004 0.17578 0.91992 0.1125 0.77189 0.46096 2.8397 0.55469 3.2832 0.14715 0.71399 0.35902 1.9407 0.41016 2.3613 0.0313 0.25587 0.15563 0.92212 0.28515 1.498 0.12442 0.57006 0.30276 1.554 0.39649 2.1875 0.0887 0.63352 0.20296 1.3849 0.25977 1.6699 0.0534 0.28683 0.15163 0.95674 0.22265 1.498 0.0665 0.5413 0.16194 1.3124 0.21875 1.7266 1.1857 9.2428 2.8859 20.742 4.0215 31.6 0.27035 4.1221 0.4092 7.8308 0.42773 11.207a209.1 209.1 0 0 0 29.066 2.2832 209.1 209.1 0 0 0 27.172-2.0273c0.24584-2.0389 0.47628-3.978 0.72656-6.0274 0.065-0.55921 0.15752-1.2794 0.20704-1.6211 0.0488-0.33846 0.14208-1.2187 0.20898-1.957 0.11218-1.2204 0.46423-3.0125 0.57422-4.5879 0.0805-0.61527 0.17679-1.3957 0.20703-1.7344 0.0824-0.83894 0.31422-2.6519 0.40039-3.1328 0.0389-0.21539 0.12287-0.79276 0.1875-1.2852 0.065-0.49218 0.15954-1.1474 0.21094-1.4551 0.18217-1.0964 0.27163-1.6875 0.36914-2.4609 0.0929-0.73406 0.14256-1.0741 0.39844-2.7188 0.0555-0.35078 0.14517-0.93933 0.19921-1.3086 0.0537-0.3693 0.14612-0.97449 0.20508-1.3438 0.0597-0.369 0.14095-0.97292 0.18555-1.3418 0.0438-0.36934 0.12816-0.94884 0.1875-1.2871 0.0597-0.34307 0.15229-0.96205 0.20898-1.3984 0.0986-0.76705 0.20172-1.4423 0.39258-2.5723 0.051-0.3052 0.13213-0.84054 0.18164-1.1758 0.0491-0.33846 0.13516-0.91823 0.19336-1.2871 0.12684-0.80837 0.26244-1.734 0.41211-2.7969 0.0605-0.43635 0.14353-0.98102 0.18359-1.2305 0.31529-1.9194 0.62734-4.2642 0.97657-6.5098 0.0469-0.13626 0.14259-0.76068 0.21289-1.3984 0.0707-0.63776 0.16243-1.4034 0.20703-1.7129 0.0427-0.30788 0.11165-0.96096 0.15625-1.4531 0.0427-0.49236 0.13925-1.2986 0.21484-1.791 0.27236-1.7852 0.25057-3.0942 0.57032-4.8672 0.054-0.46401 0.14536-1.2634 0.20507-1.7891 0.0597-0.52596 0.15589-1.3042 0.21485-1.7402 0.0601-0.43423 0.14775-1.1641 0.19726-1.623 0.0484-0.45861 0.12627-1.1604 0.17578-1.5606 0.0484-0.39825 0.13636-1.3089 0.19532-2.0137 0.12211-1.477 0.28473-2.8131 0.40039-3.2988 0.0438-0.18372 0.13786-0.9182 0.20703-1.623 0.0707-0.70484 0.15726-1.5147 0.1875-1.791 0.0329-0.2792 0.11077-1.0501 0.17578-1.7324 0.44855-4.5976 0.58977-9.0923-0.0684-14.182-0.0726-2.013-0.32138-3.7976-0.29492-5.957-0.059-1.1747-0.15103-2.7763-0.20508-3.5801-0.0537-0.79975-0.15217-2.5622-0.2168-3.916-0.0646-1.3536-0.14548-3.0403-0.18554-3.748-0.0378-0.7059-0.11645-2.2699-0.17578-3.4668-0.0593-1.1972-0.15059-2.8887-0.20313-3.748-0.31601-5.2816-0.53816-10.008-0.79101-15.16-0.1287-1.9147-0.30219-5.1576-0.39063-7.3281-0.1045-2.5844-0.28077-6.0178-0.38281-7.4395-0.2787-4.0316-0.53259-7.4189-0.59571-11.244-0.0646-1.2975-0.14939-2.4984-0.18945-2.6836-0.13927-0.6477-0.32767-2.439-0.60547-5.7617-0.0692-0.8279-0.15525-1.7581-0.19531-2.0586-0.15345-1.194-0.3578-4.5756-0.36914-6.1309-7e-3 -0.90599-0.0557-1.6562-0.10938-1.6562-0.054 0-0.11977-0.38606-0.13867-0.86719-0.0208-0.47686-0.13037-1.5721-0.24414-2.4336-0.11376-0.86143-0.25549-2.0442-0.31445-2.6289-0.0601-0.58174-0.19092-1.5394-0.29297-2.1152-0.10318-0.58065-0.22985-1.532-0.28125-2.125-0.097-1.1187-0.25078-2.335-0.39062-3.0879-0.0454-0.24537-0.21715-1.3591-0.37891-2.4668-0.1615-1.1074-0.4306-2.6483-0.59766-3.4121-0.16622-0.76086-0.34111-1.6213-0.39062-1.8965-0.0484-0.27515-0.18752-0.88297-0.30469-1.3418-0.46212-1.8117-0.86198-4.1188-1.4512-6.3223-0.0541-0.30871-0.32623-1.2866-0.60742-2.1816-0.28101-0.89522-0.58842-2.0238-0.68555-2.5176-0.0965-0.49239-0.26943-1.2709-0.38281-1.7324-0.11339-0.45861-0.25146-1.0426-0.30664-1.2871-0.15466-0.6949-0.47453-1.8514-0.68164-2.4629-0.16498-0.48548-0.50174-1.9226-0.70508-3.0195-0.0348-0.18505-0.16277-0.76145-0.28711-1.2871-0.12503-0.52569-0.30074-1.3251-0.39258-1.7891-0.092-0.46401-0.30251-1.4884-0.4707-2.293-0.16819-0.80731-0.39563-1.9546-0.50977-2.5742-0.11338-0.61417-0.2386-1.32-0.2832-1.5664-0.0431-0.24409-0.13875-0.74913-0.21094-1.1192-0.17121-0.877-0.22451-1.2414-0.36133-2.459-0.0627-0.5605-0.15607-1.2321-0.20898-1.5137-0.14241-0.75096-0.28243-1.865-0.49219-3.9141-0.39039-3.8138-0.45664-4.7768-0.38672-5.6484 0.0378-0.49349 0.0783-2.0876 0.082-3.5547 5e-3 -1.4644 0.0538-2.6543 0.10742-2.6543 0.0539 0 0.0772-0.37044 0.0508-0.81836-0.24152-4.149-0.34277-17.309-0.16211-21.188 0.19366-4.1517 0.32688-6.6673 0.40625-7.6973 0.0431-0.55514 0.13068-1.8126 0.19531-2.7969 0.15436-2.328 0.26628-3.4768 0.39062-4.0293 0.0552-0.24405 0.13995-0.82847 0.18946-1.2871 0.0491-0.46133 0.18034-1.5427 0.29297-2.4062 0.113-0.8609 0.25064-1.941 0.30468-2.4024 0.0533-0.4586 0.15917-1.0426 0.23438-1.2871 0.0752-0.24676 0.14907-0.598 0.16797-0.7832 5.6959-26.731 10.73-34.788 20.682-60.498 1.8636-2.7768 3.1962-6.7024 5.5664-9.8438 5.4093-8.1907 7.382-10.263 16.303-17.078 0.95361-0.49882 3.0397-1.1138 4.373-1.291l4e-3 4e-3c1.0466-0.13531 2.3503-0.0838 3.5488-0.0195 1.1373 0.0299 2.354 0.10245 2.7168 0.16406 2.9008 0.48197 6.0444 0.65561 8.5371 2.0801 0.7867 0.44946 1.452 1.1103 1.9023 1.8809 0.0983 0.10462 0.17578 0.3286 0.17578 0.50586 0.0937 3.959 0.17745 8.2705 0.30859 14.395-0.39019 13.828-0.50827 20.443-0.60351 33.955-0.0427 6.064-0.14127 12.955-0.21875 15.326-0.28687 9.1407 0.15141 16.441-0.14453 25.061-0.1358 3.5644-0.34154 9.8682-0.61328 18.74-0.0654 2.159-0.15948 4.7949-0.20899 5.873-0.0495 1.0782-0.13188 3.6923-0.18554 5.8164-0.0936 3.6851-0.19801 7.3405-0.44141 12.918-0.0382 1.6012-0.10056 4.1517-0.14063 5.6562-0.10639 4.1011 0.31962 10.218-0.8125 16.445-0.72574 6.4684-0.64564 9.757-1.752 17.453-0.0491 0.0435-0.13188 0.5469-0.18555 1.1289-0.0854 0.92847-0.16994 1.3604-0.29882 1.5547-0.0265 0.0321-0.0249 0.14008-0.01 0.25196 0.0166 0.10836-0.0636 0.45892-0.17773 0.7832-0.11339 0.32323-0.25279 1.1913-0.3125 1.9297-0.0597 0.73833-0.18765 1.6203-0.28516 1.959-0.74264 2.7177-0.79004 5.3358-1.2734 8.0547-0.0435 0.40282-0.12368 1.0009-0.17773 1.3418-0.13625 0.84589-0.34295 2.7875-0.41211 3.8613-0.0318 0.49459-0.11248 1.4196-0.18164 2.0684-0.19563 1.835-0.32581 3.2124-0.4082 4.3086-0.0423 0.55944-0.0844 1.0059-0.0957 1.0059-0.0106 0-0.0478 0.5932-0.0879 1.3203-0.0382 0.72707-0.11839 1.3488-0.17773 1.3828-0.0586 0.034-0.0224 0.18457 0.0781 0.33008 0.10129 0.14513 0.12039 0.26758 0.041 0.26758-0.0809 0-0.15859 0.23437-0.16992 0.52539-0.0441 1.0629-0.42416 5.5723-0.46875 5.5723-1.4355 9.5974 0.10546 20.142-0.90821 30.541-0.25912 15.406-0.0803 32.717 0.42969 41.562 0.0472 0.83248 0.13276 2.4389 0.18945 3.5801 0.10987 2.2376 0.25287 4.257 0.39649 5.5938 0.4854 4.5318 0.98968 8.8166 1.5371 13.594 0.045 0.43653 0.0962 0.7832 0.11133 0.7832 0.0155 0 0.0677 0.42525 0.11718 0.95117 0.0488 0.52566 0.12533 1.25 0.16992 1.6211 0.10356 0.8352 0.25746 2.2617 0.38672 3.582 0.0548 0.55922 0.11379 1.0059 0.12891 1.0059 0.0163 0 0.0577 0.27999 0.0879 0.61523 0.0329 0.34031 0.1172 1.0407 0.1875 1.5664 0.37508 2.8555 0.57833 5.9681 1.0098 8.7051 0.0435 0.34862 0.12658 1.018 0.18554 1.4766 0.43665 3.2928 1.2831 7.8046 1.3613 11.914 0.13614 0.92289 0.2596 1.9021 0.39453 3.1328 0.0541 0.49217 0.13604 1.147 0.18555 1.4551 0.0487 0.30924 0.13912 0.98381 0.19922 1.5098 0.17869 1.544 0.43979 3.612 0.58984 4.6641 0.19899 1.3984 0.29274 2.1246 0.40234 3.1113 0.12428 1.1189 0.25935 2.164 0.38672 3.0195 0.0747 0.49833 0.22559 1.646 0.40625 3.0781 0.0355 0.27954 0.10977 0.95029 0.16797 1.5098 0.0713 0.69796 0.17503 1.4062 0.30274 2.2871a209.1 209.1 0 0 0 123.45-190.47 209.1 209.1 0 0 0-209.1-209.1z" stroke-width=".88841"/>
 </g>
</svg>
